<svg xmlns="http://www.w3.org/2000/svg" viewBox="0 0 800 580" width="1200px" height="580px" xmlns:xlink="http://www.w3.org/1999/xlink" version="1.1">
 <path fill="#fffa72" fill-rule="nonzero" d="M 734.567 34.372 c -28.692 61.724 -23.266 100.422 16.275 116.094 c 59.313 23.508 200.347 32.911 259.299 83.906 c 58.95 50.994 238.697 11.572 269.438 -75.95 C 1310.32 70.9 1365.67 -64 1073.81 -64 c -194.576 0 -307.654 32.79 -339.24 98.372 h -0.001 Z" />
 <path style="position: relative; z-index: 0; fill: rgb(17, 17, 17);" fill="#fffa72" fill-rule="nonzero" transform="translate(-1800 60) scale(2.8) skewX(30)" d="M 734.567 34.372 c -28.692 61.724 -23.266 100.422 16.275 116.094 c 59.313 23.508 200.347 32.911 259.299 83.906 c 58.95 50.994 238.697 11.572 269.438 -75.95 C 1310.32 70.9 1365.67 -64 1073.81 -64 c -194.576 0 -307.654 32.79 -339.24 98.372 h -0.001 Z" /><path style="position: relative; z-index: 1; fill: rgb(21, 21, 21);" fill="#fffa72" fill-rule="nonzero" transform="translate(-1650 55) scale(2.65) skewX(27.5)" d="M 734.567 34.372 c -28.692 61.724 -23.266 100.422 16.275 116.094 c 59.313 23.508 200.347 32.911 259.299 83.906 c 58.95 50.994 238.697 11.572 269.438 -75.95 C 1310.32 70.9 1365.67 -64 1073.81 -64 c -194.576 0 -307.654 32.79 -339.24 98.372 h -0.001 Z" /><path style="position: relative; z-index: 2; fill: rgb(26, 26, 26);" fill="#fffa72" fill-rule="nonzero" transform="translate(-1500 50) scale(2.5) skewX(25)" d="M 734.567 34.372 c -28.692 61.724 -23.266 100.422 16.275 116.094 c 59.313 23.508 200.347 32.911 259.299 83.906 c 58.95 50.994 238.697 11.572 269.438 -75.95 C 1310.32 70.9 1365.67 -64 1073.81 -64 c -194.576 0 -307.654 32.79 -339.24 98.372 h -0.001 Z" /><path style="position: relative; z-index: 3; fill: rgb(30, 30, 30);" fill="#fffa72" fill-rule="nonzero" transform="translate(-1350 45) scale(2.35) skewX(22.5)" d="M 734.567 34.372 c -28.692 61.724 -23.266 100.422 16.275 116.094 c 59.313 23.508 200.347 32.911 259.299 83.906 c 58.95 50.994 238.697 11.572 269.438 -75.95 C 1310.32 70.9 1365.67 -64 1073.81 -64 c -194.576 0 -307.654 32.79 -339.24 98.372 h -0.001 Z" /><path style="position: relative; z-index: 4; fill: rgb(34, 34, 34);" fill="#fffa72" fill-rule="nonzero" transform="translate(-1200 40) scale(2.2) skewX(20)" d="M 734.567 34.372 c -28.692 61.724 -23.266 100.422 16.275 116.094 c 59.313 23.508 200.347 32.911 259.299 83.906 c 58.95 50.994 238.697 11.572 269.438 -75.95 C 1310.32 70.9 1365.67 -64 1073.81 -64 c -194.576 0 -307.654 32.79 -339.24 98.372 h -0.001 Z" /><path style="position: relative; z-index: 5; fill: rgb(38, 38, 38);" fill="#fffa72" fill-rule="nonzero" transform="translate(-1050 35) scale(2.05) skewX(17.5)" d="M 734.567 34.372 c -28.692 61.724 -23.266 100.422 16.275 116.094 c 59.313 23.508 200.347 32.911 259.299 83.906 c 58.95 50.994 238.697 11.572 269.438 -75.95 C 1310.32 70.9 1365.67 -64 1073.81 -64 c -194.576 0 -307.654 32.79 -339.24 98.372 h -0.001 Z" /><path style="position: relative; z-index: 6; fill: rgb(43, 43, 43);" fill="#fffa72" fill-rule="nonzero" transform="translate(-900 30) scale(1.9) skewX(15)" d="M 734.567 34.372 c -28.692 61.724 -23.266 100.422 16.275 116.094 c 59.313 23.508 200.347 32.911 259.299 83.906 c 58.95 50.994 238.697 11.572 269.438 -75.95 C 1310.32 70.9 1365.67 -64 1073.81 -64 c -194.576 0 -307.654 32.79 -339.24 98.372 h -0.001 Z" /><path style="position: relative; z-index: 7; fill: rgb(47, 47, 47);" fill="#fffa72" fill-rule="nonzero" transform="translate(-750 25) scale(1.75) skewX(12.5)" d="M 734.567 34.372 c -28.692 61.724 -23.266 100.422 16.275 116.094 c 59.313 23.508 200.347 32.911 259.299 83.906 c 58.95 50.994 238.697 11.572 269.438 -75.95 C 1310.32 70.9 1365.67 -64 1073.81 -64 c -194.576 0 -307.654 32.79 -339.24 98.372 h -0.001 Z" /><path style="position: relative; z-index: 8; fill: rgb(51, 51, 51);" fill="#fffa72" fill-rule="nonzero" transform="translate(-600 20) scale(1.6) skewX(10)" d="M 734.567 34.372 c -28.692 61.724 -23.266 100.422 16.275 116.094 c 59.313 23.508 200.347 32.911 259.299 83.906 c 58.95 50.994 238.697 11.572 269.438 -75.95 C 1310.32 70.9 1365.67 -64 1073.81 -64 c -194.576 0 -307.654 32.79 -339.24 98.372 h -0.001 Z" /><path style="position: relative; z-index: 9; fill: rgb(55, 55, 55);" fill="#fffa72" fill-rule="nonzero" transform="translate(-450 15) scale(1.45) skewX(7.5)" d="M 734.567 34.372 c -28.692 61.724 -23.266 100.422 16.275 116.094 c 59.313 23.508 200.347 32.911 259.299 83.906 c 58.95 50.994 238.697 11.572 269.438 -75.95 C 1310.32 70.9 1365.67 -64 1073.81 -64 c -194.576 0 -307.654 32.79 -339.24 98.372 h -0.001 Z" /><path style="position: relative; z-index: 10; fill: rgb(60, 60, 60);" fill="#fffa72" fill-rule="nonzero" transform="translate(-300 10) scale(1.3) skewX(5)" d="M 734.567 34.372 c -28.692 61.724 -23.266 100.422 16.275 116.094 c 59.313 23.508 200.347 32.911 259.299 83.906 c 58.95 50.994 238.697 11.572 269.438 -75.95 C 1310.32 70.9 1365.67 -64 1073.81 -64 c -194.576 0 -307.654 32.79 -339.24 98.372 h -0.001 Z" /><path style="position: relative; z-index: 11; fill: rgb(64, 64, 64);" fill="#fffa72" fill-rule="nonzero" transform="translate(-150 5) scale(1.15) skewX(2.5)" d="M 734.567 34.372 c -28.692 61.724 -23.266 100.422 16.275 116.094 c 59.313 23.508 200.347 32.911 259.299 83.906 c 58.95 50.994 238.697 11.572 269.438 -75.95 C 1310.32 70.9 1365.67 -64 1073.81 -64 c -194.576 0 -307.654 32.79 -339.24 98.372 h -0.001 Z" />
</svg>